<?xml version="1.0" encoding="utf-8"?>
<svg version="1.1" xmlns:xlink="http://www.w3.org/1999/xlink" width="41px" height="49px" xmlns="http://www.w3.org/2000/svg">
  <g transform="matrix(1 0 0 1 -1852 -18 )">
    <path d="M 40.727734375 35.4261067708333  C 40.9092447916667 37.0317925347222  41 38.7384982638889  41 40.5462239583333  C 41 42.8643663194445  40.3326822916667 44.8528645833333  38.998046875 46.51171875  C 37.6634114583333 48.1705729166667  36.0565104166667 49  34.17734375 49  L 6.82265625 49  C 4.94348958333333 49  3.33658854166667 48.1705729166667  2.001953125 46.51171875  C 0.667317708333333 44.8528645833333  0 42.8643663194445  0 40.5462239583333  C 0 38.7384982638889  0.0907552083333335 37.0317925347222  0.272265625 35.4261067708333  C 0.453776041666667 33.8204210069444  0.790104166666667 32.2041015625  1.28125 30.5771484375  C 1.77239583333333 28.9501953125  2.39700520833333 27.5571831597222  3.155078125 26.3981119791667  C 3.91315104166667 25.2390407986111  4.916796875 24.2926432291667  6.166015625 23.5589192708333  C 7.415234375 22.8251953125  8.85130208333333 22.4583333333333  10.47421875 22.4583333333333  C 13.2716145833333 25.1805555555556  16.6135416666667 26.5416666666667  20.5 26.5416666666667  C 24.3864583333333 26.5416666666667  27.7283854166667 25.1805555555556  30.52578125 22.4583333333333  C 32.1486979166667 22.4583333333333  33.584765625 22.8251953125  34.833984375 23.5589192708333  C 36.083203125 24.2926432291667  37.0868489583333 25.2390407986111  37.844921875 26.3981119791667  C 38.6029947916667 27.5571831597222  39.2276041666667 28.9501953125  39.71875 30.5771484375  C 40.2098958333333 32.2041015625  40.5462239583333 33.8204210069444  40.727734375 35.4261067708333  Z M 29.196484375 3.5888671875  C 31.598828125 5.9814453125  32.8 8.86848958333334  32.8 12.25  C 32.8 15.6315104166667  31.598828125 18.5185546875  29.196484375 20.9111328125  C 26.794140625 23.3037109375  23.8953125 24.5  20.5 24.5  C 17.1046875 24.5  14.205859375 23.3037109375  11.803515625 20.9111328125  C 9.401171875 18.5185546875  8.2 15.6315104166667  8.2 12.25  C 8.2 8.86848958333334  9.401171875 5.9814453125  11.803515625 3.5888671875  C 14.205859375 1.1962890625  17.1046875 0  20.5 0  C 23.8953125 0  26.794140625 1.1962890625  29.196484375 3.5888671875  Z " fill-rule="nonzero" fill="#80ffff" stroke="none" fill-opacity="0.466666666666667" transform="matrix(1 0 0 1 1852 18 )" />
  </g>
</svg>