{
    "asset" : {
        "generator" : "Khronos glTF Blender I/O v1.6.16",
        "version" : "2.0"
    },
    "scene" : 0,
    "scenes" : [
        {
            "name" : "Scene",
            "nodes" : [
                0,
                1,
                2,
                3,
                4,
                5,
                6,
                7,
                8,
                9,
                10
            ]
        }
    ],
    "nodes" : [
        {
            "mesh" : 0,
            "name" : "Left_propeller_0",
            "rotation" : [
                0.7071068286895752,
                0,
                0,
                0.7071067094802856
            ],
            "scale" : [
                0.009999999776482582,
                0.009999999776482582,
                0.009999999776482582
            ]
        },
        {
            "mesh" : 1,
            "name" : "Right_propeller_0",
            "rotation" : [
                0.7071068286895752,
                0,
                0,
                0.7071067094802856
            ],
            "scale" : [
                0.009999999776482582,
                0.009999999776482582,
                0.009999999776482582
            ]
        },
        {
            "mesh" : 2,
            "name" : "Right_font_missile_cover_0",
            "rotation" : [
                0.7071068286895752,
                0,
                0,
                0.7071067094802856
            ],
            "scale" : [
                0.009999999776482582,
                0.009999999776482582,
                0.009999999776482582
            ]
        },
        {
            "mesh" : 3,
            "name" : "Right_mid_missile_cover_0",
            "rotation" : [
                0.7071068286895752,
                0,
                0,
                0.7071067094802856
            ],
            "scale" : [
                0.009999999776482582,
                0.009999999776482582,
                0.009999999776482582
            ]
        },
        {
            "mesh" : 4,
            "name" : "Right_edge_missile_cover_0",
            "rotation" : [
                0.7071068286895752,
                0,
                0,
                0.7071067094802856
            ],
            "scale" : [
                0.009999999776482582,
                0.009999999776482582,
                0.009999999776482582
            ]
        },
        {
            "mesh" : 5,
            "name" : "left_font_missile_cover1_0",
            "rotation" : [
                0.7071068286895752,
                0,
                0,
                0.7071067094802856
            ],
            "scale" : [
                0.009999999776482582,
                0.009999999776482582,
                0.009999999776482582
            ]
        },
        {
            "mesh" : 6,
            "name" : "left_mid_missile_cover1_0",
            "rotation" : [
                0.7071068286895752,
                0,
                0,
                0.7071067094802856
            ],
            "scale" : [
                0.009999999776482582,
                0.009999999776482582,
                0.009999999776482582
            ]
        },
        {
            "mesh" : 7,
            "name" : "left_edge_missile_cover1_0",
            "rotation" : [
                0.7071068286895752,
                0,
                0,
                0.7071067094802856
            ],
            "scale" : [
                0.009999999776482582,
                0.009999999776482582,
                0.009999999776482582
            ]
        },
        {
            "mesh" : 8,
            "name" : "Right_wing_0",
            "rotation" : [
                0.7071068286895752,
                0,
                0,
                0.7071067094802856
            ],
            "scale" : [
                0.009999999776482582,
                0.009999999776482582,
                0.009999999776482582
            ]
        },
        {
            "mesh" : 9,
            "name" : "Left_wing_0",
            "rotation" : [
                0.7071068286895752,
                0,
                0,
                0.7071067094802856
            ],
            "scale" : [
                0.009999999776482582,
                0.009999999776482582,
                0.009999999776482582
            ]
        },
        {
            "mesh" : 10,
            "name" : "Typhoon_Submarine_0",
            "rotation" : [
                0.7071068286895752,
                0,
                0,
                0.7071067094802856
            ],
            "scale" : [
                0.009999999776482582,
                0.009999999776482582,
                0.009999999776482582
            ]
        }
    ],
    "materials" : [
        {
            "doubleSided" : true,
            "name" : "M_Typhoon_Submarine",
            "pbrMetallicRoughness" : {
                "baseColorTexture" : {
                    "index" : 0
                },
                "metallicFactor" : 0,
                "roughnessFactor" : 0
            }
        }
    ],
    "meshes" : [
        {
            "name" : "010-0-10",
            "primitives" : [
                {
                    "attributes" : {
                        "POSITION" : 0,
                        "NORMAL" : 1,
                        "TEXCOORD_0" : 2
                    },
                    "indices" : 3,
                    "material" : 0
                }
            ]
        },
        {
            "name" : "009-0-9",
            "primitives" : [
                {
                    "attributes" : {
                        "POSITION" : 4,
                        "NORMAL" : 5,
                        "TEXCOORD_0" : 6
                    },
                    "indices" : 7,
                    "material" : 0
                }
            ]
        },
        {
            "name" : "008-0-8",
            "primitives" : [
                {
                    "attributes" : {
                        "POSITION" : 8,
                        "NORMAL" : 9,
                        "TEXCOORD_0" : 10
                    },
                    "indices" : 11,
                    "material" : 0
                }
            ]
        },
        {
            "name" : "007-0-7",
            "primitives" : [
                {
                    "attributes" : {
                        "POSITION" : 12,
                        "NORMAL" : 13,
                        "TEXCOORD_0" : 14
                    },
                    "indices" : 11,
                    "material" : 0
                }
            ]
        },
        {
            "name" : "006-0-6",
            "primitives" : [
                {
                    "attributes" : {
                        "POSITION" : 15,
                        "NORMAL" : 16,
                        "TEXCOORD_0" : 17
                    },
                    "indices" : 18,
                    "material" : 0
                }
            ]
        },
        {
            "name" : "005-0-5",
            "primitives" : [
                {
                    "attributes" : {
                        "POSITION" : 19,
                        "NORMAL" : 20,
                        "TEXCOORD_0" : 21
                    },
                    "indices" : 22,
                    "material" : 0
                }
            ]
        },
        {
            "name" : "004-0-4",
            "primitives" : [
                {
                    "attributes" : {
                        "POSITION" : 23,
                        "NORMAL" : 24,
                        "TEXCOORD_0" : 25
                    },
                    "indices" : 22,
                    "material" : 0
                }
            ]
        },
        {
            "name" : "003-0-3",
            "primitives" : [
                {
                    "attributes" : {
                        "POSITION" : 26,
                        "NORMAL" : 27,
                        "TEXCOORD_0" : 28
                    },
                    "indices" : 29,
                    "material" : 0
                }
            ]
        },
        {
            "name" : "002-0-2",
            "primitives" : [
                {
                    "attributes" : {
                        "POSITION" : 30,
                        "NORMAL" : 31,
                        "TEXCOORD_0" : 32
                    },
                    "indices" : 33,
                    "material" : 0
                }
            ]
        },
        {
            "name" : "001-0-1",
            "primitives" : [
                {
                    "attributes" : {
                        "POSITION" : 34,
                        "NORMAL" : 35,
                        "TEXCOORD_0" : 36
                    },
                    "indices" : 37,
                    "material" : 0
                }
            ]
        },
        {
            "name" : "000-0-0",
            "primitives" : [
                {
                    "attributes" : {
                        "POSITION" : 38,
                        "NORMAL" : 39,
                        "TEXCOORD_0" : 40
                    },
                    "indices" : 41,
                    "material" : 0
                }
            ]
        }
    ],
    "textures" : [
        {
            "sampler" : 0,
            "source" : 0
        }
    ],
    "images" : [
        {
            "bufferView" : 4,
            "mimeType" : "image/png",
            "name" : "Texture_Submarine_Hand-Painted"
        }
    ],
    "accessors" : [
        {
            "bufferView" : 0,
            "componentType" : 5126,
            "count" : 1288,
            "max" : [
                -1595.5469970703125,
                -79.30780029296875,
                -45.82170104980469
            ],
            "min" : [
                -1874.5799560546875,
                -195.57200622558594,
                -162.0858917236328
            ],
            "type" : "VEC3"
        },
        {
            "bufferView" : 1,
            "componentType" : 5126,
            "count" : 1288,
            "type" : "VEC3"
        },
        {
            "bufferView" : 2,
            "componentType" : 5126,
            "count" : 1288,
            "type" : "VEC2"
        },
        {
            "bufferView" : 3,
            "componentType" : 5123,
            "count" : 5136,
            "type" : "SCALAR"
        },
        {
            "bufferView" : 5,
            "componentType" : 5126,
            "count" : 1288,
            "max" : [
                -1595.5469970703125,
                187.58740234375,
                -53.750999450683594
            ],
            "min" : [
                -1874.5799560546875,
                87.18209838867188,
                -154.1562957763672
            ],
            "type" : "VEC3"
        },
        {
            "bufferView" : 6,
            "componentType" : 5126,
            "count" : 1288,
            "type" : "VEC3"
        },
        {
            "bufferView" : 7,
            "componentType" : 5126,
            "count" : 1288,
            "type" : "VEC2"
        },
        {
            "bufferView" : 8,
            "componentType" : 5123,
            "count" : 5136,
            "type" : "SCALAR"
        },
        {
            "bufferView" : 9,
            "componentType" : 5126,
            "count" : 276,
            "max" : [
                1231.0028076171875,
                129.59034729003906,
                -298.0480041503906
            ],
            "min" : [
                981.8870239257812,
                16.140899658203125,
                -312.25518798828125
            ],
            "type" : "VEC3"
        },
        {
            "bufferView" : 10,
            "componentType" : 5126,
            "count" : 276,
            "type" : "VEC3"
        },
        {
            "bufferView" : 11,
            "componentType" : 5126,
            "count" : 276,
            "type" : "VEC2"
        },
        {
            "bufferView" : 12,
            "componentType" : 5123,
            "count" : 756,
            "type" : "SCALAR"
        },
        {
            "bufferView" : 13,
            "componentType" : 5126,
            "count" : 276,
            "max" : [
                951.0639038085938,
                129.59034729003906,
                -298.0480041503906
            ],
            "min" : [
                702.3369750976562,
                16.140899658203125,
                -312.25518798828125
            ],
            "type" : "VEC3"
        },
        {
            "bufferView" : 14,
            "componentType" : 5126,
            "count" : 276,
            "type" : "VEC3"
        },
        {
            "bufferView" : 15,
            "componentType" : 5126,
            "count" : 276,
            "type" : "VEC2"
        },
        {
            "bufferView" : 16,
            "componentType" : 5126,
            "count" : 368,
            "max" : [
                671.2423095703125,
                129.59034729003906,
                -298.0480041503906
            ],
            "min" : [
                328.94500732421875,
                16.140899658203125,
                -312.25518798828125
            ],
            "type" : "VEC3"
        },
        {
            "bufferView" : 17,
            "componentType" : 5126,
            "count" : 368,
            "type" : "VEC3"
        },
        {
            "bufferView" : 18,
            "componentType" : 5126,
            "count" : 368,
            "type" : "VEC2"
        },
        {
            "bufferView" : 19,
            "componentType" : 5123,
            "count" : 1008,
            "type" : "SCALAR"
        },
        {
            "bufferView" : 20,
            "componentType" : 5126,
            "count" : 276,
            "max" : [
                1231.0028076171875,
                -14.017552375793457,
                -298.0480041503906
            ],
            "min" : [
                981.8870239257812,
                -127.46700286865234,
                -312.255126953125
            ],
            "type" : "VEC3"
        },
        {
            "bufferView" : 21,
            "componentType" : 5126,
            "count" : 276,
            "type" : "VEC3"
        },
        {
            "bufferView" : 22,
            "componentType" : 5126,
            "count" : 276,
            "type" : "VEC2"
        },
        {
            "bufferView" : 23,
            "componentType" : 5123,
            "count" : 756,
            "type" : "SCALAR"
        },
        {
            "bufferView" : 24,
            "componentType" : 5126,
            "count" : 276,
            "max" : [
                951.0639038085938,
                -14.017552375793457,
                -298.0480041503906
            ],
            "min" : [
                702.3369750976562,
                -127.46700286865234,
                -312.255126953125
            ],
            "type" : "VEC3"
        },
        {
            "bufferView" : 25,
            "componentType" : 5126,
            "count" : 276,
            "type" : "VEC3"
        },
        {
            "bufferView" : 26,
            "componentType" : 5126,
            "count" : 276,
            "type" : "VEC2"
        },
        {
            "bufferView" : 27,
            "componentType" : 5126,
            "count" : 368,
            "max" : [
                671.2423095703125,
                -14.017552375793457,
                -298.0480041503906
            ],
            "min" : [
                328.94500732421875,
                -127.46700286865234,
                -312.255126953125
            ],
            "type" : "VEC3"
        },
        {
            "bufferView" : 28,
            "componentType" : 5126,
            "count" : 368,
            "type" : "VEC3"
        },
        {
            "bufferView" : 29,
            "componentType" : 5126,
            "count" : 368,
            "type" : "VEC2"
        },
        {
            "bufferView" : 30,
            "componentType" : 5123,
            "count" : 1008,
            "type" : "SCALAR"
        },
        {
            "bufferView" : 31,
            "componentType" : 5126,
            "count" : 104,
            "max" : [
                1735.3944091796875,
                380.91131591796875,
                -213.1999969482422
            ],
            "min" : [
                1599.56005859375,
                77.29209899902344,
                -235.96202087402344
            ],
            "type" : "VEC3"
        },
        {
            "bufferView" : 32,
            "componentType" : 5126,
            "count" : 104,
            "type" : "VEC3"
        },
        {
            "bufferView" : 33,
            "componentType" : 5126,
            "count" : 104,
            "type" : "VEC2"
        },
        {
            "bufferView" : 34,
            "componentType" : 5123,
            "count" : 264,
            "type" : "SCALAR"
        },
        {
            "bufferView" : 35,
            "componentType" : 5126,
            "count" : 104,
            "max" : [
                1735.3944091796875,
                -77.34677124023438,
                -213.1999969482422
            ],
            "min" : [
                1599.56005859375,
                -380.96600341796875,
                -235.96202087402344
            ],
            "type" : "VEC3"
        },
        {
            "bufferView" : 36,
            "componentType" : 5126,
            "count" : 104,
            "type" : "VEC3"
        },
        {
            "bufferView" : 37,
            "componentType" : 5126,
            "count" : 104,
            "type" : "VEC2"
        },
        {
            "bufferView" : 38,
            "componentType" : 5123,
            "count" : 264,
            "type" : "SCALAR"
        },
        {
            "bufferView" : 39,
            "componentType" : 5126,
            "count" : 9753,
            "max" : [
                1994.416259765625,
                309.89349365234375,
                168.71299743652344
            ],
            "min" : [
                -1993,
                -309.95001220703125,
                -757.6395874023438
            ],
            "type" : "VEC3"
        },
        {
            "bufferView" : 40,
            "componentType" : 5126,
            "count" : 9753,
            "type" : "VEC3"
        },
        {
            "bufferView" : 41,
            "componentType" : 5126,
            "count" : 9753,
            "type" : "VEC2"
        },
        {
            "bufferView" : 42,
            "componentType" : 5123,
            "count" : 38886,
            "type" : "SCALAR"
        }
    ],
    "bufferViews" : [
        {
            "buffer" : 0,
            "byteLength" : 15456,
            "byteOffset" : 0
        },
        {
            "buffer" : 0,
            "byteLength" : 15456,
            "byteOffset" : 15456
        },
        {
            "buffer" : 0,
            "byteLength" : 10304,
            "byteOffset" : 30912
        },
        {
            "buffer" : 0,
            "byteLength" : 10272,
            "byteOffset" : 41216
        },
        {
            "buffer" : 0,
            "byteLength" : 399380,
            "byteOffset" : 51488
        },
        {
            "buffer" : 0,
            "byteLength" : 15456,
            "byteOffset" : 450868
        },
        {
            "buffer" : 0,
            "byteLength" : 15456,
            "byteOffset" : 466324
        },
        {
            "buffer" : 0,
            "byteLength" : 10304,
            "byteOffset" : 481780
        },
        {
            "buffer" : 0,
            "byteLength" : 10272,
            "byteOffset" : 492084
        },
        {
            "buffer" : 0,
            "byteLength" : 3312,
            "byteOffset" : 502356
        },
        {
            "buffer" : 0,
            "byteLength" : 3312,
            "byteOffset" : 505668
        },
        {
            "buffer" : 0,
            "byteLength" : 2208,
            "byteOffset" : 508980
        },
        {
            "buffer" : 0,
            "byteLength" : 1512,
            "byteOffset" : 511188
        },
        {
            "buffer" : 0,
            "byteLength" : 3312,
            "byteOffset" : 512700
        },
        {
            "buffer" : 0,
            "byteLength" : 3312,
            "byteOffset" : 516012
        },
        {
            "buffer" : 0,
            "byteLength" : 2208,
            "byteOffset" : 519324
        },
        {
            "buffer" : 0,
            "byteLength" : 4416,
            "byteOffset" : 521532
        },
        {
            "buffer" : 0,
            "byteLength" : 4416,
            "byteOffset" : 525948
        },
        {
            "buffer" : 0,
            "byteLength" : 2944,
            "byteOffset" : 530364
        },
        {
            "buffer" : 0,
            "byteLength" : 2016,
            "byteOffset" : 533308
        },
        {
            "buffer" : 0,
            "byteLength" : 3312,
            "byteOffset" : 535324
        },
        {
            "buffer" : 0,
            "byteLength" : 3312,
            "byteOffset" : 538636
        },
        {
            "buffer" : 0,
            "byteLength" : 2208,
            "byteOffset" : 541948
        },
        {
            "buffer" : 0,
            "byteLength" : 1512,
            "byteOffset" : 544156
        },
        {
            "buffer" : 0,
            "byteLength" : 3312,
            "byteOffset" : 545668
        },
        {
            "buffer" : 0,
            "byteLength" : 3312,
            "byteOffset" : 548980
        },
        {
            "buffer" : 0,
            "byteLength" : 2208,
            "byteOffset" : 552292
        },
        {
            "buffer" : 0,
            "byteLength" : 4416,
            "byteOffset" : 554500
        },
        {
            "buffer" : 0,
            "byteLength" : 4416,
            "byteOffset" : 558916
        },
        {
            "buffer" : 0,
            "byteLength" : 2944,
            "byteOffset" : 563332
        },
        {
            "buffer" : 0,
            "byteLength" : 2016,
            "byteOffset" : 566276
        },
        {
            "buffer" : 0,
            "byteLength" : 1248,
            "byteOffset" : 568292
        },
        {
            "buffer" : 0,
            "byteLength" : 1248,
            "byteOffset" : 569540
        },
        {
            "buffer" : 0,
            "byteLength" : 832,
            "byteOffset" : 570788
        },
        {
            "buffer" : 0,
            "byteLength" : 528,
            "byteOffset" : 571620
        },
        {
            "buffer" : 0,
            "byteLength" : 1248,
            "byteOffset" : 572148
        },
        {
            "buffer" : 0,
            "byteLength" : 1248,
            "byteOffset" : 573396
        },
        {
            "buffer" : 0,
            "byteLength" : 832,
            "byteOffset" : 574644
        },
        {
            "buffer" : 0,
            "byteLength" : 528,
            "byteOffset" : 575476
        },
        {
            "buffer" : 0,
            "byteLength" : 117036,
            "byteOffset" : 576004
        },
        {
            "buffer" : 0,
            "byteLength" : 117036,
            "byteOffset" : 693040
        },
        {
            "buffer" : 0,
            "byteLength" : 78024,
            "byteOffset" : 810076
        },
        {
            "buffer" : 0,
            "byteLength" : 77772,
            "byteOffset" : 888100
        }
    ],
    "samplers" : [
        {
            "magFilter" : 9729,
            "minFilter" : 9987
        }
    ],
    "buffers" : [
        {
            "byteLength" : 965872,
            "uri" : "data:application/octet-stream;base64,"
        }
    ]
}
