<svg t="1654048085542" class="icon" viewBox="0 0 1024 1024" version="1.1" xmlns="http://www.w3.org/2000/svg" p-id="2023" data-spm-anchor-id="a313x.7781069.0.i2" width="200" height="200"><path d="M134.71 488.54a240.29 240.29 0 0 1-6.71-56C127.72 300.22 235.63 192 367.92 192A239.8 239.8 0 0 1 608 431.29c0.05 17.83 14.51 32.89 32.34 32.7A32 32 0 0 0 672 432a303.52 303.52 0 0 0-16.75-99.7A176.1 176.1 0 0 1 896 496v0.33A31.44 31.44 0 0 0 927.35 528h1.29A31.31 31.31 0 0 0 960 496.91V496c0-132.55-107.45-240-240-240a239.25 239.25 0 0 0-92.05 18.3c-53.3-87.66-149.69-146.24-259.77-146.3C200.66 127.9 64 264.48 64 432a304.52 304.52 0 0 0 8.46 71.48A32 32 0 0 0 103.59 528a32 32 0 0 0 31.12-39.46zM805 576H123c-14.9 0-27 14.33-27 32s12.08 32 27 32h682c14.9 0 27-14.33 27-32s-12.08-32-27-32zM864 704H219c-14.9 0-27 14.33-27 32s12.08 32 27 32h645c14.9 0 27-14.33 27-32s-12.08-32-27-32zM933 832H155c-14.9 0-27 14.33-27 32s12.08 32 27 32h778c14.9 0 27-14.33 27-32s-12.08-32-27-32z" p-id="2024" fill="#27a8a4"></path></svg>