<?xml version="1.0" encoding="utf-8"?>
<svg version="1.1" xmlns:xlink="http://www.w3.org/1999/xlink" width="26px" height="25px" xmlns="http://www.w3.org/2000/svg">
  <g transform="matrix(1 0 0 1 -116 -13 )">
    <path d="M 25.84130859375 11.9907924107143  C 25.9471028645833 12.1349516369048  26 12.300037202381  26 12.4860491071429  C 26 12.6813616071429  25.9449869791667 12.8510974702381  25.8349609375 12.9952566964286  C 25.7249348958333 13.139415922619  25.5852864583333 13.2300967261905  25.416015625 13.2672991071429  L 22.8134765625 18.2338169642857  C 22.8388671875 18.3175223214286  22.8515625 18.4012276785714  22.8515625 18.4849330357143  C 22.8515625 18.6709449404762  22.7986653645833 18.8360305059524  22.69287109375 18.9801897321429  C 22.5870768229167 19.1243489583333  22.4495442708333 19.2150297619048  22.2802734375 19.2522321428571  L 19.830078125 23.9536830357143  C 19.85546875 24.028087797619  19.8681640625 24.1024925595238  19.8681640625 24.1768973214286  C 19.8681640625 24.3908110119048  19.79833984375 24.5768229166667  19.65869140625 24.7349330357143  C 19.51904296875 24.8930431547619  19.34765625 24.9720982142857  19.14453125 24.9720982142857  C 18.9329427083333 24.9720982142857  18.7594401041667 24.8883928571429  18.6240234375 24.7209821428571  L 13.5458984375 24.7209821428571  C 13.4020182291667 24.906994047619  13.2200520833333 25  13 25  C 12.7799479166667 25  12.5979817708333 24.906994047619  12.4541015625 24.7209821428571  L 7.388671875 24.7209821428571  C 7.24479166666667 24.906994047619  7.06282552083333 25  6.8427734375 25  C 6.64811197916667 25  6.47884114583333 24.9232700892857  6.3349609375 24.7698102678571  C 6.19108072916667 24.6163504464286  6.119140625 24.4280133928571  6.119140625 24.2047991071429  C 6.119140625 24.1303943452381  6.13606770833333 24.0373883928571  6.169921875 23.92578125  L 3.7197265625 19.2522321428571  C 3.55045572916667 19.2150297619048  3.41292317708333 19.1243489583333  3.30712890625 18.9801897321429  C 3.20133463541667 18.8360305059524  3.1484375 18.6709449404762  3.1484375 18.4849330357143  C 3.1484375 18.4012276785714  3.1611328125 18.3175223214286  3.1865234375 18.2338169642857  L 0.5712890625 13.2672991071429  C 0.402018229166667 13.2207961309524  0.264485677083333 13.1254650297619  0.15869140625 12.9813058035714  C 0.0528971354166667 12.837146577381  0 12.6720610119048  0 12.4860491071429  C 0 12.2907366071429  0.05712890625 12.1210007440476  0.17138671875 11.9768415178571  C 0.28564453125 11.8326822916667  0.427408854166667 11.7420014880952  0.5966796875 11.7047991071429  L 3.123046875 6.90569196428572  C 3.123046875 6.89639136904762  3.12093098958333 6.88244047619047  3.11669921875 6.86383928571428  C 3.11246744791667 6.84523809523809  3.1103515625 6.83128720238095  3.1103515625 6.82198660714286  C 3.1103515625 6.48716517857143  3.25423177083333 6.25  3.5419921875 6.11049107142857  L 6.1953125 1.04631696428572  C 6.16145833333333 0.953311011904762  6.14453125 0.869605654761904  6.14453125 0.795200892857142  C 6.14453125 0.571986607142858  6.21647135416667 0.383649553571427  6.3603515625 0.230189732142858  C 6.50423177083333 0.0767299107142849  6.67350260416667 0  6.8681640625 0  C 7.08821614583333 0  7.2744140625 0.09765625  7.4267578125 0.29296875  L 12.4541015625 0.29296875  C 12.5895182291667 0.09765625  12.771484375 0  13 0  C 13.228515625 0  13.4104817708333 0.09765625  13.5458984375 0.29296875  L 18.5986328125 0.29296875  C 18.7509765625 0.09765625  18.9371744791667 0  19.1572265625 0  C 19.3518880208333 0  19.5211588541667 0.0767299107142849  19.6650390625 0.230189732142858  C 19.8089192708333 0.383649553571427  19.880859375 0.571986607142858  19.880859375 0.795200892857142  C 19.880859375 0.851004464285715  19.8639322916667 0.934709821428573  19.830078125 1.04631696428572  L 22.4580078125 6.04073660714286  C 22.6526692708333 6.05003720238095  22.8177083333333 6.13141741071428  22.953125 6.28487723214286  C 23.0885416666667 6.43833705357143  23.15625 6.61737351190476  23.15625 6.82198660714286  C 23.15625 6.94289434523809  23.1266276041667 7.06845238095238  23.0673828125 7.19866071428572  L 25.44140625 11.71875  C 25.6022135416667 11.7559523809524  25.7355143229167 11.8466331845238  25.84130859375 11.9907924107143  Z M 13 23.4095982142857  C 13.177734375 23.4095982142857  13.3427734375 23.4840029761905  13.4951171875 23.6328125  L 18.43359375 23.6328125  L 14.091796875 18.6941964285714  L 12.2763671875 18.6941964285714  L 7.9345703125 23.6328125  L 12.5048828125 23.6328125  C 12.6572265625 23.4840029761905  12.822265625 23.4095982142857  13 23.4095982142857  Z M 3.884765625 7.6171875  L 1.421875 12.3046875  C 1.43033854166667 12.3418898809524  1.4345703125 12.40234375  1.4345703125 12.4860491071429  C 1.4345703125 12.5790550595238  1.42610677083333 12.6488095238095  1.4091796875 12.6953125  L 4.0498046875 17.7176339285714  L 4.240234375 17.8013392857143  L 6.626953125 15.0251116071429  L 6.626953125 10.1841517857143  L 4.2529296875 7.47767857142857  C 4.14290364583333 7.55208333333333  4.02018229166667 7.59858630952381  3.884765625 7.6171875  Z M 13 1.59040178571428  C 12.8138020833333 1.59040178571428  12.6529947916667 1.51599702380952  12.517578125 1.3671875  L 7.591796875 1.3671875  L 10.00390625 4.15736607142857  L 17.037109375 1.3671875  L 13.482421875 1.3671875  C 13.3470052083333 1.51599702380952  13.1861979166667 1.59040178571428  13 1.59040178571428  Z M 20.4775390625 18.2756696428571  L 21.4423828125 18.2756696428571  C 21.4508463541667 18.2198660714286  21.4720052083333 18.168712797619  21.505859375 18.1222098214286  L 20.693359375 17.1735491071429  L 20.4775390625 18.2756696428571  Z M 14.21875 18.2756696428571  L 20.0966796875 18.2756696428571  L 20.3759765625 16.8108258928571  L 17.1767578125 13.0998883928571  L 13.4189453125 17.3828125  L 14.21875 18.2756696428571  Z M 18.814453125 23.4793526785714  C 18.8821614583333 23.442150297619  18.9371744791667 23.4188988095238  18.9794921875 23.4095982142857  L 19.1826171875 23.0189732142857  L 20.0078125 18.6941964285714  L 14.5869140625 18.6941964285714  L 18.814453125 23.4793526785714  Z M 7.05859375 23.4514508928571  C 7.17708333333333 23.4979538690476  7.27018229166667 23.5584077380952  7.337890625 23.6328125  L 7.4013671875 23.6328125  L 11.7431640625 18.6941964285714  L 7.0078125 18.6941964285714  L 7.0078125 23.3677455357143  L 7.05859375 23.4514508928571  Z M 7.0078125 15.1925223214286  L 7.0078125 18.2756696428571  L 12.111328125 18.2756696428571  L 12.923828125 17.3549107142857  L 9.0009765625 12.8766741071429  L 7.0078125 15.1925223214286  Z M 4.494140625 18.1082589285714  C 4.52799479166667 18.1826636904762  4.54915364583333 18.2384672619048  4.5576171875 18.2756696428571  L 6.626953125 18.2756696428571  L 6.626953125 15.6389508928571  L 4.494140625 18.1082589285714  Z M 6.626953125 5.94308035714286  L 4.544921875 6.76618303571428  C 4.544921875 6.77548363095238  4.54703776041667 6.78478422619047  4.55126953125 6.79408482142857  C 4.55550130208333 6.80338541666667  4.5576171875 6.81268601190476  4.5576171875 6.82198660714286  C 4.5576171875 6.97079613095238  4.52376302083333 7.10565476190476  4.4560546875 7.2265625  L 6.626953125 9.69587053571428  L 6.626953125 5.94308035714286  Z M 9.8896484375 4.64564732142857  L 7.0078125 5.78962053571428  L 7.0078125 10.1283482142857  L 8.9501953125 12.3186383928571  L 12.720703125 7.93805803571428  L 9.8896484375 4.64564732142857  Z M 7.185546875 1.50669642857143  C 7.134765625 1.52529761904762  7.09244791666667 1.53924851190476  7.05859375 1.54854910714286  L 7.0078125 1.66015625  L 7.0078125 5.34319196428572  L 9.6103515625 4.31082589285714  L 7.185546875 1.50669642857143  Z M 12.9873046875 7.63113839285714  L 18.3701171875 1.3671875  L 18.1669921875 1.3671875  L 10.283203125 4.4921875  L 12.9873046875 7.63113839285714  Z M 16.9228515625 12.79296875  L 12.9873046875 8.23102678571428  L 9.216796875 12.6255580357143  L 13.1650390625 17.0758928571429  L 16.9228515625 12.79296875  Z M 7.0078125 14.5786830357143  L 8.734375 12.5837053571429  L 7.0078125 10.6166294642857  L 7.0078125 14.5786830357143  Z M 13.7236328125 18.2756696428571  L 13.177734375 17.6618303571429  L 12.64453125 18.2756696428571  L 13.7236328125 18.2756696428571  Z M 22.08984375 7.51953125  L 17.443359375 12.8069196428571  L 20.46484375 16.30859375  L 22.140625 7.60323660714286  L 22.1025390625 7.53348214285714  L 22.08984375 7.51953125  Z M 17.189453125 12.5  L 21.810546875 7.2265625  C 21.7428385416667 7.10565476190476  21.708984375 6.97079613095238  21.708984375 6.82198660714286  L 21.708984375 6.79408482142857  L 18.966796875 1.54854910714286  C 18.9244791666667 1.53924851190476  18.8694661458333 1.51599702380952  18.8017578125 1.47879464285714  L 13.25390625 7.93805803571428  L 17.189453125 12.5  Z M 4.5576171875 6.31975446428572  L 6.626953125 5.49665178571428  L 6.626953125 2.38560267857143  L 4.5576171875 6.31975446428572  Z M 6.626953125 22.6422991071429  L 6.626953125 18.6941964285714  L 4.5576171875 18.6941964285714  L 6.626953125 22.6422991071429  Z M 21.4423828125 18.6941964285714  L 20.4013671875 18.6941964285714  L 19.7919921875 21.8610491071429  L 21.4423828125 18.6941964285714  Z M 21.759765625 17.8152901785714  C 21.8020833333333 17.7873883928571  21.8655598958333 17.7548363095238  21.9501953125 17.7176339285714  L 24.578125 12.6813616071429  C 24.5611979166667 12.5883556547619  24.552734375 12.5232514880952  24.552734375 12.4860491071429  C 24.552734375 12.4767485119048  24.5654296875 12.40234375  24.5908203125 12.2628348214286  L 22.419921875 8.13337053571428  L 20.7822265625 16.6713169642857  L 21.759765625 17.8152901785714  Z " fill-rule="nonzero" fill="#e3e3e3" stroke="none" transform="matrix(1 0 0 1 116 13 )" />
  </g>
</svg>