<?xml version="1.0" encoding="utf-8"?>
<svg version="1.1" xmlns:xlink="http://www.w3.org/1999/xlink" width="20px" height="23px" xmlns="http://www.w3.org/2000/svg">
  <g transform="matrix(1 0 0 1 -147 -205 )">
    <path d="M 13.53515625 10.376953125  C 14.51171875 9.62825520833333  15 8.72482638888889  15 7.66666666666667  C 15 6.60850694444444  14.51171875 5.705078125  13.53515625 4.95638020833333  C 12.55859375 4.20768229166667  11.3802083333333 3.83333333333333  10 3.83333333333333  C 8.61979166666667 3.83333333333333  7.44140625 4.20768229166667  6.46484375 4.95638020833333  C 5.48828125 5.705078125  5 6.60850694444444  5 7.66666666666667  C 5 8.72482638888889  5.48828125 9.62825520833333  6.46484375 10.376953125  C 7.44140625 11.1256510416667  8.61979166666667 11.5  10 11.5  C 11.3802083333333 11.5  12.55859375 11.1256510416667  13.53515625 10.376953125  Z M 17.0703125 2.24609375  C 19.0234375 3.74348958333333  20 5.55034722222222  20 7.66666666666667  C 20 8.75477430555555  19.78515625 9.64822048611111  19.35546875 10.3470052083333  L 12.24609375 21.9368489583333  C 12.0377604166667 22.2662760416667  11.728515625 22.5258246527778  11.318359375 22.7154947916667  C 10.908203125 22.9051649305556  10.46875 23  10 23  C 9.53125 23  9.091796875 22.9051649305556  8.681640625 22.7154947916667  C 8.271484375 22.5258246527778  7.96875 22.2662760416667  7.7734375 21.9368489583333  L 0.64453125 10.3470052083333  C 0.21484375 9.64822048611111  0 8.75477430555555  0 7.66666666666667  C 0 5.55034722222222  0.9765625 3.74348958333333  2.9296875 2.24609375  C 4.8828125 0.748697916666668  7.23958333333333 0  10 0  C 12.7604166666667 0  15.1171875 0.748697916666668  17.0703125 2.24609375  Z " fill-rule="nonzero" fill="#e5e5e5" stroke="none" transform="matrix(1 0 0 1 147 205 )" />
  </g>
</svg>