<?xml version="1.0" encoding="utf-8"?>
<svg version="1.1" xmlns:xlink="http://www.w3.org/1999/xlink" width="26px" height="20px" xmlns="http://www.w3.org/2000/svg">
  <g transform="matrix(1 0 0 1 -62 -15 )">
    <path d="M 7.02232142857143 14.9431818181818  C 7.29315476190476 15.2083333333333  7.42857142857143 15.530303030303  7.42857142857143 15.9090909090909  L 7.42857142857143 18.6363636363636  C 7.42857142857143 19.0151515151515  7.29315476190476 19.3371212121212  7.02232142857143 19.6022727272727  C 6.7514880952381 19.8674242424242  6.42261904761905 20  6.03571428571429 20  L 1.39285714285714 20  C 1.00595238095238 20  0.677083333333333 19.8674242424242  0.40625 19.6022727272727  C 0.135416666666667 19.3371212121212  0 19.0151515151515  0 18.6363636363636  L 0 15.9090909090909  C 0 15.530303030303  0.135416666666667 15.2083333333333  0.40625 14.9431818181818  C 0.677083333333333 14.6780303030303  1.00595238095238 14.5454545454545  1.39285714285714 14.5454545454545  L 6.03571428571429 14.5454545454545  C 6.42261904761905 14.5454545454545  6.7514880952381 14.6780303030303  7.02232142857143 14.9431818181818  Z M 7.02232142857143 7.67045454545455  C 7.29315476190476 7.93560606060606  7.42857142857143 8.25757575757576  7.42857142857143 8.63636363636363  L 7.42857142857143 11.3636363636364  C 7.42857142857143 11.7424242424242  7.29315476190476 12.0643939393939  7.02232142857143 12.3295454545455  C 6.7514880952381 12.594696969697  6.42261904761905 12.7272727272727  6.03571428571429 12.7272727272727  L 1.39285714285714 12.7272727272727  C 1.00595238095238 12.7272727272727  0.677083333333333 12.594696969697  0.40625 12.3295454545455  C 0.135416666666667 12.0643939393939  0 11.7424242424242  0 11.3636363636364  L 0 8.63636363636363  C 0 8.25757575757576  0.135416666666667 7.93560606060606  0.40625 7.67045454545455  C 0.677083333333333 7.40530303030303  1.00595238095238 7.27272727272727  1.39285714285714 7.27272727272727  L 6.03571428571429 7.27272727272727  C 6.42261904761905 7.27272727272727  6.7514880952381 7.40530303030303  7.02232142857143 7.67045454545455  Z M 25.59375 14.9431818181818  C 25.8645833333333 15.2083333333333  26 15.530303030303  26 15.9090909090909  L 26 18.6363636363636  C 26 19.0151515151515  25.8645833333333 19.3371212121212  25.59375 19.6022727272727  C 25.3229166666667 19.8674242424242  24.9940476190476 20  24.6071428571429 20  L 10.6785714285714 20  C 10.2916666666667 20  9.96279761904762 19.8674242424242  9.69196428571429 19.6022727272727  C 9.42113095238095 19.3371212121212  9.28571428571429 19.0151515151515  9.28571428571429 18.6363636363636  L 9.28571428571429 15.9090909090909  C 9.28571428571429 15.530303030303  9.42113095238095 15.2083333333333  9.69196428571429 14.9431818181818  C 9.96279761904762 14.6780303030303  10.2916666666667 14.5454545454545  10.6785714285714 14.5454545454545  L 24.6071428571429 14.5454545454545  C 24.9940476190476 14.5454545454545  25.3229166666667 14.6780303030303  25.59375 14.9431818181818  Z M 7.02232142857143 0.397727272727273  C 7.29315476190476 0.662878787878787  7.42857142857143 0.984848484848484  7.42857142857143 1.36363636363636  L 7.42857142857143 4.09090909090909  C 7.42857142857143 4.46969696969697  7.29315476190476 4.79166666666667  7.02232142857143 5.05681818181818  C 6.7514880952381 5.3219696969697  6.42261904761905 5.45454545454545  6.03571428571429 5.45454545454545  L 1.39285714285714 5.45454545454545  C 1.00595238095238 5.45454545454545  0.677083333333333 5.3219696969697  0.40625 5.05681818181818  C 0.135416666666667 4.79166666666667  0 4.46969696969697  0 4.09090909090909  L 0 1.36363636363636  C 0 0.984848484848484  0.135416666666667 0.662878787878787  0.40625 0.397727272727273  C 0.677083333333333 0.132575757575757  1.00595238095238 0  1.39285714285714 0  L 6.03571428571429 0  C 6.42261904761905 0  6.7514880952381 0.132575757575757  7.02232142857143 0.397727272727273  Z M 25.59375 7.67045454545455  C 25.8645833333333 7.93560606060606  26 8.25757575757576  26 8.63636363636363  L 26 11.3636363636364  C 26 11.7424242424242  25.8645833333333 12.0643939393939  25.59375 12.3295454545455  C 25.3229166666667 12.594696969697  24.9940476190476 12.7272727272727  24.6071428571429 12.7272727272727  L 10.6785714285714 12.7272727272727  C 10.2916666666667 12.7272727272727  9.96279761904762 12.594696969697  9.69196428571429 12.3295454545455  C 9.42113095238095 12.0643939393939  9.28571428571429 11.7424242424242  9.28571428571429 11.3636363636364  L 9.28571428571429 8.63636363636363  C 9.28571428571429 8.25757575757576  9.42113095238095 7.93560606060606  9.69196428571429 7.67045454545455  C 9.96279761904762 7.40530303030303  10.2916666666667 7.27272727272727  10.6785714285714 7.27272727272727  L 24.6071428571429 7.27272727272727  C 24.9940476190476 7.27272727272727  25.3229166666667 7.40530303030303  25.59375 7.67045454545455  Z M 25.59375 0.397727272727273  C 25.8645833333333 0.662878787878787  26 0.984848484848484  26 1.36363636363636  L 26 4.09090909090909  C 26 4.46969696969697  25.8645833333333 4.79166666666667  25.59375 5.05681818181818  C 25.3229166666667 5.3219696969697  24.9940476190476 5.45454545454545  24.6071428571429 5.45454545454545  L 10.6785714285714 5.45454545454545  C 10.2916666666667 5.45454545454545  9.96279761904762 5.3219696969697  9.69196428571429 5.05681818181818  C 9.42113095238095 4.79166666666667  9.28571428571429 4.46969696969697  9.28571428571429 4.09090909090909  L 9.28571428571429 1.36363636363636  C 9.28571428571429 0.984848484848484  9.42113095238095 0.662878787878787  9.69196428571429 0.397727272727273  C 9.96279761904762 0.132575757575757  10.2916666666667 0  10.6785714285714 0  L 24.6071428571429 0  C 24.9940476190476 0  25.3229166666667 0.132575757575757  25.59375 0.397727272727273  Z " fill-rule="nonzero" fill="#148dd0" stroke="none" transform="matrix(1 0 0 1 62 15 )" />
  </g>
</svg>